<?xml version="1.0" encoding="UTF-8"?>
<svg id="Layer_1" data-name="Layer 1" xmlns="http://www.w3.org/2000/svg" viewBox="0 0 188.31 75.71">
  <path d="M179.77,32.9c-1.32.09-7.25,3.9-8.5,4.95-2.56,2.14-5.35,6.12-4.27,9.66.51,1.66,6.35,5.67,4.74,8.9-.5,1.01-6.18,4.24-7.46,4.8-2.6,1.15-4.87,2.02-7.4.5-.45-.27-.92-.56-1.22-.99-.54-.78-.42-1.81-.28-2.74.36-2.35.63-4.84,1.69-6.99,3.41-6.91,9.58-18.29,10.9-25.69.21-1.2.68-7.05.48-8.04-.13-.62-.83-1.77-1.57-1.58-5.11,5.63-6.99,13.73-9.14,20.91-3.54-3.24-9.14-3.96-13.46-1.79-4.98,2.51-7.53,6.83-10.66,11.08-2.87,3.89-4.77,8.28-9.21,10.73-.45.2-1-.39-1.15-.73-1.11-2.46,1.8-11.15,1.93-14.3.25-6.4-5.91-9.74-10.01-4.2.65,0-.2-2.82-.31-3.03-.51-.92-1.54-1.74-2.25-2.54-.21-.23-.42-.47-.71-.6-.23-.1-.49-.12-.74-.13-.73-.02-1.46.06-2.16.26-.31.08-.62.19-.85.42-.3.3-.4.73-.49,1.15-.58,2.71-.91,5.53-1.77,8.16-1.78,5.48-5.98,10.87-10.12,14.75-1.64,1.53-6.69,6.3-9,4.71-2.76-5.93,7.75-17.38,2.36-22.03-1.04-.9-2.76-1.15-4-.51-.55.29-.9,1.09-1.54.91-.55-.15-.91-1.41-1.37-1.79-2.98-2.44-7.7,1.15-9.93,3.05-3.51,3-9.67,11.49-10.34,16.11-1.41,9.74,10.52,14.14,15.57,5.89,2.75,5.54,8.16,5.64,13.11,2.53l9.27-8.61c-3.15,9.31-.08,15.05,6.58,4.9l9.18-14.7,1.38-.31c.54,3.95-1.36,7.65-1.3,11.57.04,2.63.33,5.25,3.42,5.16,2.05-.06,3.65-1.09,5.11-2.44,1.39-1.28,3.01-2.43,4.5-3.57.85-.65,4.14-2.93,4.17-4.05-.28,11.09,5.54,14.37,14.56,7.79l4.95-4.78c.82,8.17,2.86,12.9,12.04,12.42,6.36-.33,17-7.45,13.41-14.76-2.21-4.51-5.85-3.83-5.16-10.74.41-4.1,7.09-8.8,9.25-5.29,1.61,2.62-4.48,4.5-2.02,7.54,1.75,2.16,4.7-.63,5.25-2.56.93-3.29-1.36-9.63-5.46-9.36ZM77.47,49.72c-.71,1.3-6.43,9.11-7.66,8.85-.52-.11-.78-1-.71-1.56.04-.33,2.92-4.98,3.4-5.67.5-.72,5.51-6.84,6.03-6.42.77,1.76-.22,3.28-1.05,4.81ZM139.8,56.65c-.84-1.91-.14-4.89.66-6.76.9-2.1,6.2-6.82,8.26-8.05,4.15-2.47,1.2,3.61.29,5.23-1.02,1.81-3.9,5.65-5.32,7.12-.51.53-3.37,2.82-3.89,2.46Z"/>
  <path d="M30.35,37.48c-6.11-.56-11.6,4.12-14.97,8.72.85-2.49,1.25-5.17,2.09-7.65,2.15-6.33,7.74-16.15,8.92-22.03.42-2.09.94-6.38-2.23-5.04-3.72,7.27-7.35,14.68-10.74,22.13-1.09,2.39-1.73,5.32-2.78,7.69-2.54,5.74-6.59,11.87-8.43,17.77-.71,2.27-2.11,6.44.77,7.75,5.51,2.5,7.42-7.52,9.03-10.9,2.96-6.2,14.05-15.81,21.42-15.08,2.38,6.98-7.12,14.98-12.87,17.34-2.16.88-5.87,1.17-7.44,2.63-2.16,2-1.81,5.74,1.55,5.37,5.94-.66,17.94-9.13,20.35-14.62,2.21-5.06,2.42-13.43-4.67-14.07Z"/>
  <path d="M64.52,44.74c3.06-.36,3.7-7.9-.02-8.7-5.67-1.22-7.86,2.62-11.41,5.88,1.31-3.7.17-9.99-4.81-9.02-1.53.3-2.82,2.6-3.16,3.99-.44,1.84-.15,3.78-.59,5.62-.57,2.4-1.53,4.67-2.69,6.84-2.2,4.13-4.97,7.95-6.13,12.56-1.24,4.92,1.19,7.68,5.11,3.68,5.6-5.71,8.1-15.95,14.81-22.74.43-.44,3.34-3.15,3.56-3.24.74-.32.61.26.77.57,1.14,2.21,1.56,4.91,4.56,4.56Z"/>
</svg>