<?xml version="1.0" encoding="UTF-8"?>
<svg id="Layer_1" data-name="Layer 1" xmlns="http://www.w3.org/2000/svg" viewBox="0 0 309.3 75.71">
  <defs>
    <style>
      .cls-1 {
        fill: #fff;
      }
    </style>
  </defs>
  <path class="cls-1" d="M209.36,27.43c.38-4.46,3.72-8.23,3.01-12.88-2.15-2.14-4.26-.49-6.49.69-1.76,2.62-2.75,5.96-3.99,8.85-.67,1.57-1.33,3.16-2.12,4.67-.53,1.02-.88,1-2.04,1.23-1.39.27-2.76.62-4.08,1.13-.97.37-3.33,1.05-3.66,2.22-.83,2.98,4.58,2.82,6.3,3.03-3.12,4.62-3.59,12.03-6.46,16.58-.86,1.36-10.63,7.37-12.25,7.72-4.04.86-7.01.07-7.76-4.25-.64-3.67,3.31-9.12,6.46-10.97,2.07-1.22,5.05-2.32,7.38-1.5.76-3.14-5.86-4.43-7.99-4.48-4.79-.11-9.59,4.9-12.61,8.26-1.04,1.16-1.24,2.49-2.68,3.66-1.91,1.56-4.74,2.29-6.53,4.13,2.16-8.38,7.04-26.68-8.3-17.6.72-.43.86-1.69,1.22-2.38.54-1.05,1.52-2.2.77-3.46-.09-.15-.21-.29-.33-.42-.97-1.01-2.47-1.42-3.83-1.16-1.74.33-1.7.73-1.66,2.31.02.82-.46,2.04-.8,2.8-.68,1.54-1.46,3.05-2.27,4.53-1.26,2.31-2.51,4.84-4.17,6.89-2.23,2.76-5.08,4.92-7.87,7.08-1.42,1.1-2.84,2.19-4.12,3.43-.93.89-2.5,2.12-3.9,1.49-.92-.41-.73-1.45-.59-2.33.31-2.02,1.37-3.91,2.38-5.66,1.63-2.81,5.39-6.94,4.81-10.45-.6-3.65-5.77,1.23-6.88,2.11-2.91,2.31-5.32,5.09-7.22,8.28-1.8,3.04-4.15,6.14-2.73,9.89,4.36,11.51,15.44-.49,20.35-4.7.51-.43.73-1.1,1.58-.91-.46,1.35-3.16,5.39-3.05,6.47.42,4.04,4.02,4.67,6.48,1.63,3.23-3.98,6.23-10.61,9.45-14.97,1.3-1.76,2.87-3.12,4.47-4.59,1.98-.11-.79,8.2-.93,8.97-.78,4.37-3.22,13.84,4.21,11.79,3.96-1.09,5-4.66,8.15-6.81,3.16,9.04,10.48,11.99,19.32,8.22,3.69-1.57,5.72-3.8,8.8-6.18,1.37,6.39,4.98,7.65,8.16,1.28,3.81-7.66,7.36-16.59,10.68-24.55.42-1.01.6-2.01.75-3.08,5.61-.54,13.05-6.82,2.59-6.01Z"/>
  <path class="cls-1" d="M46.49,7.35c-3.05.61-6.09,1.99-9.13,2.96-.45.12-1,.27-1.39.1-.42-.17-.51-.72-.52-1.18.07-1.93.12-4.04.65-5.82.2-.74.46-1.53.29-2.28-.24-1.04-1.45-1.59-2.07-.64-1.31,3.4-2.22,8.59-3.76,11.7-.33.69-.72,1.26-1.26,1.8C16.55,23.54-5.82,45.4,4.24,62.76c2.4,4.21,8.65,6.78,11.34,1.5,5.32-8.76,11.28-23.57,14.72-34.49,1.14-3.97,1.98-8.14,3.17-12.04.46-1.58,1.79-2.56,3.24-3.17,1.75-.85,3.53-1.12,5.23-1.76,1.33-.51,2.81-.72,4.15-.12,2.46,1.06,4.11,3.69,4.99,6.18,5.61,16.25-9.64,32.62-22.2,41.01-2.26,1.53-4.79,2.92-7.31,3.75-1.1.27-1.85,1.56-.87,2.4.98.76,2.34-.43,3.36-.76,7.8-2.97,15.29-5.34,22.11-10.56,10.87-8.7,20.48-25.26,16.9-39.51-2.03-7.19-9.12-9.42-16.41-7.87l-.19.04ZM9.28,41.4c1.09-2.68,2.8-5.26,5.13-8.52,4.54-5.84,8-10.64,12.92-13.83.94-.39.51.82.38,1.36-2.59,8.78-5.4,17.66-9.32,25.95-1.88,3.73-4.32,9.43-6.84,12.58-.53.39-.98-.55-1.31-1.02-3.41-5.35-3.42-10.48-1.02-16.36l.06-.16Z"/>
  <path class="cls-1" d="M282.68,51.6c-5.12,2.56-16.17,7.81-21.58,8.02-2.82.11-6.12-.7-6.13-4.04,6.89-.41,17.94-6.07,18.88-13.56.52-4.16-.48-5.61-4.42-6.85-5.4-1.7-11.36,3.48-14.72,7.32-2.88,3.28-6.02,7.23-6.12,11.75l-4.96-.39c1.77-6.89,13.92-14.89,5.4-21.28-.66-.16-2.19.57-2.7,1.02-2.42,2.1-7.17,13.61-9.61,17.29-.57.86-1.32,2-2.15,2.6-.43-1.59-.18-3.06.03-4.69.37-2.83,2.29-8.57,2.09-10.91-.03-.34-1.22-3.52-1.36-3.65-2.5-2.14-4.65.91-5.65,3.01-.73,1.52-1.25,3.15-1.61,4.79-.32,1.44-.13,3.44-1.2,4.53-2.07,2.1-3.66,4.68-5.58,6.95-1.47,1.73-3.26,4.24-5.44,5.13-2.45,1-3.65.16-3.43-2.46.09-1.16,2.54-6.45,3.21-7.65.65-1.16,4.55-6.27,4.36-6.94-1.29-1.64-2.78.45-4.33.68-1.35.2-2.88-.43-3.54-.3-2.72.54-8.22,14.14-8.31,16.97-.1,2.97,1.32,6.3,4.48,6.86,7.74,1.36,13.16-8.22,18.37-12.28-1.32,18.95,9.72,15,15.73,1.78l5.85.97c2.74,11.87,15.58,11.3,24.44,6.58,1.7-.91,3.1-2.51,4.44-3.37,2.64-1.69,15.09-9.2,15.78-11.34.2-.62.08-1.31.08-1.94-.51-.53-9.03,4.76-10.28,5.38ZM267.55,40.99c-1.6,4.77-6.06,9.63-11.24,10.5-.14-2.65,9.77-11.6,11.24-10.5Z"/>
  <path class="cls-1" d="M118.04,33.95c1.98-4.49-6.67-2.89-8.79-2.55.82-3.23,7.08-13.44,6.57-16.02-.05-.27-.73-1.38-.96-1.55-2.58-1.92-5.95,4.72-6.93,6.61-.94,1.8-3.79,9.85-4.75,10.6-1.43,1.12-5.38.17-7,2.11-2.39,2.86,1.31,4.79,4.05,4.69.08.35.05.72,0,1.08-.09.67-4.1,11.87-4.52,12.65-.4.76-6.37,6.17-6.64,5.82.9-6.13-5.61-7.33-5.91-12.56,3.56-3.18,15.03-6.88,5.74-11.25-2.94-1.38-8.7,1.65-10.33,4.24-2.7,4.27-1.17,5.6-1.38,9.45-.09,1.68-2.05,3.04-2.78,4.42-1.26,2.37-7.71,13.71-11.34,9.06-2.04-2.62,2.31-9.3,3.88-11.87,1.02-1.68,6.87-7.42,3.48-8.99-3.18-1.48-5.8,1.92-7.49,4.17-2.57,3.42-8.12,12.43-7.87,16.58.25,4.26,4.88,6.24,8.6,5.28,3.24-.84,9.58-7.47,12.03-10.18,1.47-1.63,2.87-3.63,4.02-5.5,11.72,7.4-2.18,12.38-9.57,13.28-.87,4.09-.72,7.78,4.29,8.09,3.7.23,6.86-1.51,9.35-4.13,1.14-1.2,2.43-2.59,3.31-3.99s1.17-3.01,2.34-4.16c1.26-1.24,3.72-1.37,4.37-3.31.06,2.79-2.48,4.63-1.18,7.59,1.2,2.75,5.37.84,6.58-.96,1.31-1.95,1.15-3.16,1.77-4.97,2.27-6.61,3.81-13.41,5.2-20.28.69-.57,7.08-.57,8.63-1.14.39-.14,3.13-2.11,3.21-2.29Z"/>
  <path class="cls-1" d="M125.59,29.27c-1.74,1.42-4.47,5.16-3.07,7.39.78,1.25,4.04.83,5.31.21,3.11-1.51,4.76-4.59,3.96-8.05-.87-3.76-4.33-1.08-6.2.45Z"/>
  <path class="cls-1" d="M217.64,33.43c.44,2.53,3.98,2.6,5.68,1.12.15-.13,2.12-2.62,2.29-2.9.82-1.31.76-2.34.17-3.73-1.97-4.68-8.83,1.6-8.15,5.51Z"/>
  <path class="cls-1" d="M74.6,25.47c-2.86.35-8.18,10.38-.62,8.28.78-.22.73-.75,1.04-.98,3.41-2.57,5-7.97-.42-7.3Z"/>
</svg>