<?xml version="1.0" encoding="UTF-8"?>
<svg id="Layer_1" data-name="Layer 1" xmlns="http://www.w3.org/2000/svg" viewBox="0 0 74.45 70.13">
  <defs>
    <style>
      .cls-1 {
        fill: #221f20;
      }
    </style>
  </defs>
  <path class="cls-1" d="M7.05,51.04v-24.56c0-1-.5-1.51-1.51-1.51h-1.44c-.5,0-.75-.21-.75-.63s.25-.65.75-.69c1.97-.21,2.95-1.07,2.95-2.58v-.38c0-2.18.32-4.21.97-6.09.65-1.88,1.59-3.41,2.83-4.59,1.23-1.17,2.75-1.76,4.55-1.76,1.67,0,3.08.48,4.21,1.44,1.13.96,1.7,2.12,1.7,3.46,0,.8-.2,1.39-.6,1.79s-.93.6-1.6.6c-.84,0-1.44-.27-1.79-.82-.36-.54-.64-1.16-.85-1.85-.21-.69-.47-1.31-.79-1.85-.31-.54-.87-.82-1.66-.82-.84,0-1.5.47-1.98,1.41-.48.94-.72,2.71-.72,5.31v5.53c0,.5.25.75.75.75h5.4c.63,0,.94.29.94.88s-.31.88-.94.88h-5.4c-.5,0-.75.25-.75.75v25.32c0,.88.14,1.49.41,1.82.27.33.85.54,1.73.63l3.33.31c.46.08.69.31.69.69,0,.5-.31.75-.94.75H3.47c-.63,0-.94-.23-.94-.69s.27-.71.82-.75l1.57-.13c.88-.08,1.45-.32,1.73-.72.27-.4.41-1.04.41-1.92Z"/>
  <path class="cls-1" d="M30.67,55.82c-2.14,0-4.05-.72-5.75-2.17-1.7-1.45-3.05-3.42-4.05-5.94-1.01-2.51-1.51-5.32-1.51-8.42s.5-5.88,1.51-8.35c1-2.47,2.37-4.44,4.08-5.9,1.72-1.47,3.62-2.2,5.72-2.2s4.05.73,5.75,2.2c1.7,1.47,3.05,3.43,4.05,5.9,1,2.47,1.51,5.26,1.51,8.35s-.49,5.91-1.48,8.42c-.98,2.51-2.33,4.49-4.05,5.94-1.72,1.44-3.64,2.17-5.78,2.17ZM30.67,54.25c4.35,0,6.53-4.98,6.53-14.95s-2.18-14.89-6.53-14.89-6.53,4.96-6.53,14.89,2.18,14.95,6.53,14.95Z"/>
  <path class="cls-1" d="M53.22,27.24c1.72-2.93,3.79-4.4,6.22-4.4,1.38,0,2.41.41,3.08,1.22.67.82,1,1.73,1,2.73,0,.8-.2,1.44-.6,1.95-.4.5-1.02.75-1.85.75-.67,0-1.16-.16-1.48-.47-.31-.31-.57-.68-.75-1.1-.19-.42-.41-.79-.66-1.1-.25-.31-.67-.47-1.26-.47-.75,0-1.47.45-2.14,1.35-.67.9-1.22,2.1-1.66,3.61-.44,1.51-.66,3.23-.66,5.15v14.57c0,.88.14,1.51.41,1.88.27.38.85.61,1.73.69l1.7.19c.46.08.69.31.69.69,0,.5-.31.75-.94.75h-10.62c-.63,0-.94-.23-.94-.69,0-.38.27-.63.82-.75l.75-.13c.88-.17,1.45-.43,1.73-.79.27-.36.41-.97.41-1.85v-21.11c0-.75-.12-1.27-.35-1.54-.23-.27-.64-.45-1.23-.53l-1.32-.19c-.54-.04-.82-.27-.82-.69,0-.33.33-.57,1-.69,1.3-.21,2.29-.54,2.98-1s1.41-1.03,2.17-1.7c.38-.38.69-.57.94-.57.38,0,.57.25.57.75v3.39c0,.29.13.47.38.53.25.06.48-.09.69-.47Z"/>
</svg>