<?xml version="1.0" encoding="UTF-8"?>
<svg id="Layer_1" data-name="Layer 1" xmlns="http://www.w3.org/2000/svg" viewBox="0 0 374.86 21.29">
  <defs>
    <style>
      .cls-1 {
        fill: #221f20;
      }
    </style>
  </defs>
  <path class="cls-1" d="M5.3,4.63v-.98h6.82v.98h-6.82ZM5.3,17.37v-.98h6.82v.98h-6.82ZM8.14,16.82V4.16h1.14v12.66h-1.14Z"/>
  <path class="cls-1" d="M16.96,4.63v-.98h3.94l-.02.98h-3.92ZM16.96,17.37v-.98h6.58v.98h-6.58ZM31.28,17.51L19.42,3.66h1.48l9.74,11.52V4h1.08v13.52h-.44ZM19.8,17.08V3.66h1.1v13.42h-1.1ZM27.8,4.63v-.98h6.74v.98h-6.74Z"/>
  <path class="cls-1" d="M37.94,4.63v-.98h3.94l-.02.98h-3.92ZM37.94,17.37v-.98h6.58v.98h-6.58ZM52.26,17.51l-11.86-13.86h1.48l9.74,11.52V4h1.08v13.52h-.44ZM40.78,17.08V3.66h1.1v13.42h-1.1ZM48.78,4.63v-.98h6.74v.98h-6.74Z"/>
  <path class="cls-1" d="M65.36,17.63c-.95,0-1.83-.16-2.66-.49-.83-.33-1.55-.8-2.18-1.42-.63-.62-1.11-1.37-1.46-2.25-.35-.88-.52-1.87-.52-2.96s.17-2.1.52-2.98.83-1.63,1.46-2.25c.63-.62,1.35-1.09,2.18-1.42.83-.33,1.71-.49,2.66-.49s1.83.16,2.65.49c.82.33,1.54.8,2.17,1.42.63.62,1.12,1.37,1.47,2.25.35.88.53,1.87.53,2.98s-.18,2.08-.53,2.96c-.35.88-.84,1.63-1.47,2.25-.63.62-1.35,1.09-2.17,1.42-.82.33-1.7.49-2.65.49ZM65.36,16.66c.8,0,1.54-.14,2.23-.43.69-.29,1.29-.7,1.8-1.23s.91-1.18,1.2-1.94c.29-.76.43-1.61.43-2.54s-.14-1.8-.43-2.55c-.29-.75-.69-1.4-1.2-1.94s-1.11-.95-1.8-1.24c-.69-.29-1.43-.43-2.23-.43s-1.55.14-2.24.43-1.3.7-1.81,1.24-.91,1.19-1.19,1.94c-.28.75-.42,1.6-.42,2.55s.14,1.78.42,2.54c.28.76.68,1.41,1.19,1.94s1.12.94,1.81,1.23c.69.29,1.44.43,2.24.43Z"/>
  <path class="cls-1" d="M79.54,3.66v.98h-6.2v-.98h6.2ZM81.58,17.66l-6-13.66h1.26l5.04,11.8,5.02-11.8h1.18l-6.02,13.66h-.48ZM90.32,3.66v.98h-6.42v-.98h6.42Z"/>
  <path class="cls-1" d="M90.6,17.37v-.98h6.2v.98h-6.2ZM92.88,17.01l5.58-12.92h1.68l5.64,12.92h-1.24l-5.28-12.74h.02l-5.3,12.74h-1.1ZM95.4,12.25l.46-.9h6.84l.44.9h-7.74ZM95.66,4.62v-.96h7.28v.96h-7.28ZM101.86,17.37v-.98h6.18v.98h-6.18Z"/>
  <path class="cls-1" d="M109.7,7.55v-3.9h13.46v3.9h-1.04v-2.94h-11.36v2.94h-1.06ZM112.94,17.37v-.98h7.02v.98h-7.02ZM115.86,16.78V4.2h1.14v12.58h-1.14Z"/>
  <path class="cls-1" d="M127.68,4.63v-.98h6.82v.98h-6.82ZM127.68,17.37v-.98h6.82v.98h-6.82ZM130.52,16.82V4.16h1.14v12.66h-1.14Z"/>
  <path class="cls-1" d="M145.54,17.63c-.95,0-1.83-.16-2.66-.49-.83-.33-1.55-.8-2.18-1.42-.63-.62-1.11-1.37-1.46-2.25-.35-.88-.52-1.87-.52-2.96s.17-2.1.52-2.98.83-1.63,1.46-2.25c.63-.62,1.35-1.09,2.18-1.42.83-.33,1.71-.49,2.66-.49s1.83.16,2.65.49c.82.33,1.54.8,2.17,1.42.63.62,1.12,1.37,1.47,2.25.35.88.53,1.87.53,2.98s-.18,2.08-.53,2.96c-.35.88-.84,1.63-1.47,2.25-.63.62-1.35,1.09-2.17,1.42-.82.33-1.7.49-2.65.49ZM145.54,16.66c.8,0,1.54-.14,2.23-.43.69-.29,1.29-.7,1.8-1.23s.91-1.18,1.2-1.94c.29-.76.43-1.61.43-2.54s-.14-1.8-.43-2.55c-.29-.75-.69-1.4-1.2-1.94s-1.11-.95-1.8-1.24c-.69-.29-1.43-.43-2.23-.43s-1.55.14-2.24.43-1.3.7-1.81,1.24-.91,1.19-1.19,1.94c-.28.75-.42,1.6-.42,2.55s.14,1.78.42,2.54c.28.76.68,1.41,1.19,1.94s1.12.94,1.81,1.23c.69.29,1.44.43,2.24.43Z"/>
  <path class="cls-1" d="M156.16,4.63v-.98h3.94l-.02.98h-3.92ZM156.16,17.37v-.98h6.58v.98h-6.58ZM170.48,17.51l-11.86-13.86h1.48l9.74,11.52V4h1.08v13.52h-.44ZM159,17.08V3.66h1.1v13.42h-1.1ZM167,4.63v-.98h6.74v.98h-6.74Z"/>
  <path class="cls-1" d="M186.98,17.37v-.98h6.52c.99,0,1.88-.13,2.68-.38.8-.25,1.49-.63,2.07-1.13.58-.5,1.03-1.12,1.34-1.85.31-.73.47-1.57.47-2.52s-.16-1.81-.47-2.54c-.31-.73-.76-1.35-1.34-1.84-.58-.49-1.27-.87-2.07-1.12-.8-.25-1.69-.38-2.68-.38h-6.52v-.98h6.6c1.11,0,2.12.15,3.05.45.93.3,1.74.74,2.43,1.33.69.59,1.23,1.31,1.6,2.16.37.85.56,1.83.56,2.92s-.19,2.05-.56,2.9c-.37.85-.91,1.58-1.6,2.17-.69.59-1.5,1.04-2.43,1.34-.93.3-1.94.45-3.05.45h-6.6ZM189.82,16.82V4.2h1.14v12.62h-1.14Z"/>
  <path class="cls-1" d="M217.78,7.51v-2.88h-12.02v-.98h13.08v3.86h-1.06ZM205.76,17.37v-.98h12.02v-2.88h1.06v3.86h-13.08ZM208.6,16.82V4.24h1.12v12.58h-1.12ZM209.28,10.97v-.94h4.96v.94h-4.96ZM213.72,13.04v-5.06h.96v5.06h-.96Z"/>
  <path class="cls-1" d="M227.28,11.91v-.98l4,.02c.75,0,1.43-.11,2.05-.32.62-.21,1.11-.55,1.48-1.02.37-.47.55-1.08.55-1.84s-.18-1.35-.55-1.81c-.37-.46-.86-.8-1.48-1.01-.62-.21-1.31-.32-2.07-.32h-7.56v-.98h7.6c1.04,0,1.95.16,2.73.48.78.32,1.39.79,1.82,1.4.43.61.65,1.36.65,2.24s-.22,1.65-.65,2.26c-.43.61-1.04,1.08-1.81,1.4-.77.32-1.69.48-2.74.48h-4.02ZM223.7,17.37v-.98h6.94v.98h-6.94ZM226.54,16.82V4.17h1.12v12.64h-1.12Z"/>
  <path class="cls-1" d="M238.38,17.37v-.98h6.2v.98h-6.2ZM240.66,17.01l5.58-12.92h1.68l5.64,12.92h-1.24l-5.28-12.74h.02l-5.3,12.74h-1.1ZM243.18,12.25l.46-.9h6.84l.44.9h-7.74ZM243.44,4.62v-.96h7.28v.96h-7.28ZM249.64,17.37v-.98h6.18v.98h-6.18Z"/>
  <path class="cls-1" d="M262.7,11.25v-.88h4.1c.75,0,1.39-.13,1.93-.39.54-.26.95-.61,1.24-1.05.29-.44.43-.92.43-1.44s-.14-1.02-.41-1.45c-.27-.43-.68-.78-1.22-1.04-.54-.26-1.2-.39-1.97-.39h-7.76v-.96h7.74c1.01,0,1.87.17,2.58.5.71.33,1.24.79,1.61,1.37s.55,1.24.55,1.97c0,.65-.18,1.27-.55,1.85s-.9,1.04-1.59,1.39c-.69.35-1.55.52-2.58.52h-4.1ZM259.04,17.39v-.96h6.8v.96h-6.8ZM261.88,16.82V4.2h1.14v12.62h-1.14ZM271.5,17.63c-.63,0-1.18-.11-1.67-.34s-.92-.61-1.31-1.16c-.39-.55-.75-1.29-1.1-2.24l-1.08-2.88,1.02-.14,1.12,2.86c.29.73.59,1.31.9,1.73.31.42.64.71,1,.88.36.17.76.25,1.2.25.32,0,.59-.03.8-.09.21-.06.41-.13.58-.21l.28.96c-.19.09-.43.18-.73.26s-.64.12-1.01.12Z"/>
  <path class="cls-1" d="M276.36,7.55v-3.9h13.46v3.9h-1.04v-2.94h-11.36v2.94h-1.06ZM279.6,17.37v-.98h7.02v.98h-7.02ZM282.52,16.78V4.2h1.14v12.58h-1.14Z"/>
  <path class="cls-1" d="M293.54,4.63v-.98h3.88v.98h-3.88ZM293.54,17.37v-.98h6.5v.98h-6.5ZM296.34,16.87V3.66h.88c.01.15.03.32.05.52.02.2.04.41.06.63.02.22.04.44.05.66.01.22.03.44.04.65.01.21.02.42.02.62v10.14h-1.1ZM303.42,17.62l-6.94-13.96h1.14l6.48,13-.34.96h-.34ZM303.56,17.62l-.26-.96,6.4-13h1.08l-6.9,13.96h-.32ZM307.24,17.37v-.98h6.56v.98h-6.56ZM309.86,16.87V6.74c0-.2,0-.41.02-.62.01-.21.03-.43.05-.65s.04-.44.07-.66c.03-.22.05-.43.07-.63s.04-.37.05-.52h.86v13.22h-1.12ZM309.88,4.63v-.98h3.92v.98h-3.92Z"/>
  <path class="cls-1" d="M330.66,7.51v-2.88h-12.02v-.98h13.08v3.86h-1.06ZM318.64,17.37v-.98h12.02v-2.88h1.06v3.86h-13.08ZM321.48,16.82V4.24h1.12v12.58h-1.12ZM322.16,10.97v-.94h4.96v.94h-4.96ZM326.6,13.04v-5.06h.96v5.06h-.96Z"/>
  <path class="cls-1" d="M337.38,4.63v-.98h3.94l-.02.98h-3.92ZM337.38,17.37v-.98h6.58v.98h-6.58ZM351.7,17.51l-11.86-13.86h1.48l9.74,11.52V4h1.08v13.52h-.44ZM340.22,17.08V3.66h1.1v13.42h-1.1ZM348.22,4.63v-.98h6.74v.98h-6.74Z"/>
  <path class="cls-1" d="M358.86,7.55v-3.9h13.46v3.9h-1.04v-2.94h-11.36v2.94h-1.06ZM362.1,17.37v-.98h7.02v.98h-7.02ZM365.02,16.78V4.2h1.14v12.58h-1.14Z"/>
</svg>