<?xml version="1.0" encoding="UTF-8"?>
<svg id="Layer_1" data-name="Layer 1" xmlns="http://www.w3.org/2000/svg" viewBox="0 0 196.87 69.44">
  <defs>
    <style>
      .cls-1 {
        fill: #221f20;
      }
    </style>
  </defs>
  <path class="cls-1" d="M.94,68.13c-.63,0-.94-.23-.94-.69s.27-.71.82-.75l.88-.12c.88-.13,1.45-.38,1.73-.75.27-.38.41-1.01.41-1.88V29.94c0-.75-.12-1.27-.35-1.54-.23-.27-.64-.45-1.23-.53l-1.32-.19c-.54-.04-.82-.27-.82-.69,0-.33.33-.57,1.01-.69,1.3-.21,2.29-.54,2.98-1,.69-.46,1.41-1.03,2.17-1.7.38-.38.69-.57.94-.57.38,0,.56.25.56.75v1.95c0,.29.13.49.38.6.25.11.54,0,.88-.35l.69-.69c.84-.84,1.7-1.46,2.58-1.85.88-.4,1.88-.6,3.02-.6,1.93,0,3.63.64,5.12,1.92,1.49,1.28,2.66,3.05,3.52,5.31.86,2.26,1.29,4.92,1.29,7.98,0,3.48-.54,6.55-1.63,9.23-1.09,2.68-2.59,4.77-4.49,6.28-1.91,1.51-4.09,2.26-6.56,2.26-1.26,0-2.37-.23-3.33-.69-.75-.33-1.13-.1-1.13.69v8.1c0,.88.14,1.48.41,1.79.27.31.85.53,1.73.66l2.32.31c.46.08.69.31.69.69,0,.5-.31.75-.94.75H.94ZM12.75,54.25c2.34,0,4.24-1.38,5.69-4.15,1.44-2.76,2.17-6.49,2.17-11.18,0-4.31-.63-7.6-1.88-9.86-1.26-2.26-3.04-3.39-5.34-3.39-1.42,0-2.66.59-3.71,1.76-1.05,1.17-1.57,2.81-1.57,4.9v15.83c0,1.88.43,3.37,1.29,4.46.86,1.09,1.98,1.63,3.36,1.63Z"/>
  <path class="cls-1" d="M36.81,27.24c1.72-2.93,3.79-4.4,6.22-4.4,1.38,0,2.41.41,3.08,1.22.67.82,1,1.73,1,2.73,0,.8-.2,1.44-.6,1.95-.4.5-1.02.75-1.85.75-.67,0-1.16-.16-1.48-.47-.31-.31-.57-.68-.75-1.1-.19-.42-.41-.79-.66-1.1-.25-.31-.67-.47-1.26-.47-.75,0-1.47.45-2.14,1.35-.67.9-1.22,2.1-1.66,3.61-.44,1.51-.66,3.23-.66,5.15v14.57c0,.88.14,1.51.41,1.88.27.38.85.61,1.73.69l1.7.19c.46.08.69.31.69.69,0,.5-.31.75-.94.75h-10.62c-.63,0-.94-.23-.94-.69,0-.38.27-.63.82-.75l.75-.13c.88-.17,1.45-.43,1.73-.79.27-.36.41-.97.41-1.85v-21.11c0-.75-.12-1.27-.35-1.54-.23-.27-.64-.45-1.23-.53l-1.32-.19c-.54-.04-.82-.27-.82-.69,0-.33.33-.57,1-.69,1.3-.21,2.29-.54,2.98-1s1.41-1.03,2.17-1.7c.38-.38.69-.57.94-.57.38,0,.57.25.57.75v3.39c0,.29.13.47.38.53.25.06.48-.09.69-.47Z"/>
  <path class="cls-1" d="M59.86,55.82c-2.14,0-4.05-.72-5.75-2.17-1.7-1.45-3.05-3.42-4.05-5.94-1.01-2.51-1.51-5.32-1.51-8.42s.5-5.88,1.51-8.35c1-2.47,2.37-4.44,4.08-5.9,1.72-1.47,3.62-2.2,5.72-2.2s4.05.73,5.75,2.2c1.7,1.47,3.05,3.43,4.05,5.9,1,2.47,1.51,5.26,1.51,8.35s-.49,5.91-1.48,8.42c-.98,2.51-2.33,4.49-4.05,5.94-1.72,1.44-3.64,2.17-5.78,2.17ZM59.86,54.25c4.35,0,6.53-4.98,6.53-14.95s-2.18-14.89-6.53-14.89-6.53,4.96-6.53,14.89,2.18,14.95,6.53,14.95Z"/>
  <path class="cls-1" d="M84.11,55.82c-1.84,0-3.49-.64-4.93-1.92-1.44-1.28-2.57-3.06-3.36-5.34-.8-2.28-1.19-4.93-1.19-7.95,0-3.52.54-6.61,1.63-9.27,1.09-2.66,2.6-4.74,4.52-6.25,1.93-1.51,4.1-2.26,6.53-2.26.59,0,1.17.05,1.76.16.59.1,1.15.28,1.7.53.67.33,1,.19,1-.44v-8.04c0-.75-.12-1.28-.35-1.57-.23-.29-.64-.46-1.23-.5l-1.63-.19c-.46-.08-.69-.33-.69-.75s.23-.67.69-.75c1.34-.25,2.42-.54,3.23-.88.82-.33,1.5-.67,2.04-1.01.67-.42,1.17-.63,1.51-.63.46,0,.69.34.69,1v39.51c0,1.76.44,2.64,1.32,2.64.54,0,1.05-.37,1.51-1.1.46-.73.69-1.98.69-3.74,0-.67.27-1.01.82-1.01.5,0,.75.36.75,1.07,0,3.06-.52,5.27-1.57,6.63-1.05,1.36-2.24,2.04-3.58,2.04-1.22,0-2.14-.41-2.76-1.22-.63-.82-1.05-1.79-1.26-2.92-.04-.33-.19-.51-.44-.53-.25-.02-.48.14-.69.47-1.17,1.63-2.24,2.74-3.2,3.33-.96.59-2.14.88-3.52.88ZM85.49,52.93c1.09,0,2.1-.37,3.05-1.1.94-.73,1.72-1.73,2.32-2.98.61-1.26.91-2.66.91-4.21v-14.13c0-1.88-.43-3.37-1.29-4.46-.86-1.09-1.98-1.63-3.36-1.63-2.35,0-4.24,1.37-5.69,4.12s-2.17,6.48-2.17,11.21c0,4.31.55,7.59,1.66,9.83,1.11,2.24,2.63,3.36,4.55,3.36Z"/>
  <path class="cls-1" d="M112.19,55.82c-1.05,0-2.05-.23-3.02-.69-.96-.46-1.76-1.19-2.39-2.2-.63-1-.94-2.34-.94-4.02v-21.86c0-.75-.12-1.28-.35-1.57-.23-.29-.64-.46-1.23-.5l-1.07-.12c-.71-.08-1.07-.36-1.07-.82,0-.54.4-.82,1.19-.82h5.84c.63,0,.94.31.94.94v23.43c0,1.93.37,3.3,1.1,4.12.73.82,1.75,1.22,3.05,1.22s2.45-.37,3.46-1.1c1-.73,1.81-1.72,2.42-2.95.61-1.23.91-2.58.91-4.05v-17.78c0-.75-.12-1.28-.35-1.57-.23-.29-.64-.46-1.22-.5l-1.07-.12c-.71-.08-1.07-.36-1.07-.82,0-.54.4-.82,1.19-.82h5.84c.63,0,.94.31.94.94v24.37c0,.75.11,1.27.35,1.54.23.27.64.45,1.23.53l1.32.19c.54.04.82.25.82.63s-.34.63-1.01.75c-1.3.17-2.33.5-3.11,1-.78.5-1.46,1.11-2.04,1.82-.38.38-.69.57-.94.57-.38,0-.57-.25-.57-.75v-2.89c0-.33-.12-.53-.35-.6-.23-.06-.47.03-.72.28-1.55,1.55-2.92,2.64-4.11,3.27-1.19.63-2.52.94-3.99.94Z"/>
  <path class="cls-1" d="M141.27,55.82c-1.84,0-3.51-.62-4.99-1.85-1.49-1.23-2.67-3-3.55-5.31-.88-2.3-1.32-5.05-1.32-8.23,0-3.56.53-6.66,1.6-9.3,1.07-2.64,2.52-4.68,4.37-6.12,1.84-1.44,3.89-2.17,6.16-2.17,1.93,0,3.43.38,4.52,1.13.42.29.63.75.63,1.38l.13,7.66c0,.63-.25.94-.75.94-.46,0-.75-.27-.88-.82-.59-2.3-1.15-4.08-1.7-5.34-.54-1.26-1.11-2.12-1.7-2.61-.59-.48-1.24-.72-1.95-.72-.84,0-1.71.48-2.61,1.44-.9.96-1.65,2.52-2.26,4.68-.61,2.16-.91,4.99-.91,8.51,0,4.48.58,7.85,1.73,10.11,1.15,2.26,2.65,3.39,4.49,3.39,1.47,0,2.69-.61,3.67-1.82.98-1.21,1.83-3.41,2.54-6.6.13-.46.38-.69.75-.69.5,0,.69.42.57,1.26-.46,2.93-1.1,5.2-1.92,6.82-.82,1.61-1.78,2.72-2.89,3.33-1.11.61-2.36.91-3.74.91Z"/>
  <path class="cls-1" d="M160.5,55.82c-1.47,0-2.67-.51-3.61-1.54s-1.41-2.71-1.41-5.06v-23.49c0-.5-.25-.75-.75-.75h-1.82c-.67,0-1-.25-1-.75,0-.33.19-.63.56-.88,1.38-.96,2.49-2,3.33-3.11.84-1.11,1.57-2.63,2.2-4.55.29-.88.65-1.32,1.07-1.32.46,0,.69.34.69,1v6.97c0,.59.29.88.88.88h4.08c.67,0,1.01.29,1.01.88s-.34.88-1.01.88h-4.08c-.59,0-.88.29-.88.88v23.43c0,.92.15,1.64.44,2.17.29.52.84.79,1.63.79.88,0,1.6-.44,2.17-1.32.57-.88.93-2.3,1.1-4.27.08-.59.36-.88.82-.88.5,0,.75.31.75.94-.13,3.22-.79,5.55-1.98,6.97s-2.59,2.14-4.18,2.14Z"/>
  <path class="cls-1" d="M175.76,55.82c-.96,0-1.99-.12-3.08-.35-1.09-.23-1.97-.51-2.64-.85-.38-.21-.57-.57-.57-1.07l-.19-7.04c0-.71.27-1.07.82-1.07.46,0,.77.34.94,1,.71,2.97,1.58,5,2.61,6.09,1.03,1.09,2.27,1.63,3.74,1.63,1.21,0,2.22-.47,3.02-1.41.8-.94,1.19-2.25,1.19-3.93s-.46-3.16-1.38-4.46c-.92-1.3-2.47-2.72-4.65-4.27-2.18-1.47-3.77-2.94-4.77-4.43-1.01-1.49-1.51-3.11-1.51-4.87,0-2.39.84-4.31,2.51-5.78,1.67-1.47,3.9-2.2,6.66-2.2.84,0,1.65.09,2.45.28.79.19,1.51.49,2.14.91.38.25.57.59.57,1.01l.13,6.91c0,.63-.25.94-.75.94-.29,0-.5-.09-.63-.28-.13-.19-.23-.43-.31-.72-.84-2.72-1.68-4.62-2.51-5.68-.84-1.07-1.86-1.6-3.08-1.6-1.09,0-1.99.38-2.7,1.13-.71.75-1.07,1.7-1.07,2.83,0,1.47.44,2.74,1.32,3.83s2.47,2.43,4.77,4.02c2.09,1.51,3.68,3.13,4.74,4.87,1.07,1.74,1.6,3.63,1.6,5.68,0,2.68-.86,4.83-2.58,6.44-1.72,1.61-3.98,2.42-6.78,2.42Z"/>
</svg>