<?xml version="1.0" encoding="UTF-8"?>
<svg id="Layer_1" xmlns="http://www.w3.org/2000/svg" version="1.1" viewBox="0 0 255.17 69.46">
  <!-- Generator: Adobe Illustrator 29.8.2, SVG Export Plug-In . SVG Version: 2.1.1 Build 3)  -->
  <defs>
    <style>
      .st0 {
        fill: #fff;
      }
    </style>
  </defs>
  <path class="st0" d="M10.5,55.84c-1.05,0-2.05-.23-3.02-.69-.96-.46-1.76-1.19-2.39-2.2-.63-1-.94-2.34-.94-4.02v-21.86c0-.75-.12-1.28-.35-1.57-.23-.29-.64-.46-1.23-.5l-1.07-.12c-.71-.08-1.07-.36-1.07-.82,0-.54.4-.82,1.19-.82h5.84c.63,0,.94.31.94.94v23.43c0,1.93.37,3.3,1.1,4.12.73.82,1.75,1.22,3.05,1.22s2.45-.37,3.46-1.1c1-.73,1.81-1.72,2.42-2.95s.91-2.58.91-4.05v-17.78c0-.75-.12-1.28-.35-1.57-.23-.29-.64-.46-1.22-.5l-1.07-.12c-.71-.08-1.07-.36-1.07-.82,0-.54.4-.82,1.19-.82h5.84c.63,0,.94.31.94.94v24.37c0,.75.11,1.27.35,1.54.23.27.64.45,1.23.53l1.32.19c.54.04.82.25.82.63s-.34.63-1.01.75c-1.3.17-2.33.5-3.11,1s-1.46,1.11-2.04,1.82c-.38.38-.69.57-.94.57-.38,0-.57-.25-.57-.75v-2.89c0-.33-.12-.53-.35-.6-.23-.06-.47.03-.72.28-1.55,1.55-2.92,2.64-4.11,3.27s-2.52.94-3.99.94h.02Z"/>
  <path class="st0" d="M30.16,55.27c-.63,0-.94-.23-.94-.69,0-.38.27-.63.82-.75l.75-.13c.88-.17,1.45-.43,1.73-.79.27-.36.41-.97.41-1.85v-21.11c0-.75-.12-1.27-.35-1.54s-.64-.45-1.23-.53l-1.32-.19c-.54-.04-.82-.27-.82-.69,0-.33.33-.57,1-.69,1.3-.21,2.29-.54,2.98-1s1.41-1.03,2.17-1.7c.38-.38.69-.57.94-.57.38,0,.57.25.57.75v2.83c0,.38.14.62.41.72.27.11.58,0,.91-.34,1.67-1.59,3.15-2.68,4.43-3.27s2.63-.88,4.05-.88c1.88,0,3.39.66,4.52,1.98s1.7,3.26,1.7,5.81v20.42c0,.88.14,1.5.41,1.85.27.36.85.6,1.73.72l1.38.19c.46.08.69.33.69.75,0,.46-.25.69-.75.69h-10.55c-.59,0-.88-.23-.88-.69,0-.42.23-.67.69-.75l.88-.13c.88-.13,1.45-.38,1.73-.75.27-.38.41-1,.41-1.88v-19.72c0-2.05-.38-3.5-1.13-4.33s-1.82-1.26-3.2-1.26-2.54.39-3.61,1.16c-1.07.78-1.92,1.8-2.54,3.08-.63,1.28-.94,2.69-.94,4.24v16.83c0,.88.14,1.51.41,1.88.27.38.85.61,1.73.69l1.7.19c.46.08.69.31.69.69,0,.5-.31.75-.94.75h-10.64Z"/>
  <path class="st0" d="M59.68,55.27c-.63,0-.94-.23-.94-.69,0-.38.27-.63.82-.75l.75-.13c.88-.17,1.45-.43,1.73-.79.27-.36.41-.97.41-1.85v-21.11c0-.75-.12-1.27-.35-1.54s-.64-.45-1.23-.53l-1.32-.19c-.54-.04-.82-.27-.82-.69,0-.33.33-.57,1-.69,1.3-.21,2.29-.54,2.98-1s1.41-1.03,2.17-1.7c.38-.38.69-.57.94-.57.38,0,.57.25.57.75v2.83c0,.29.13.51.38.66s.52.07.82-.22c1.72-1.63,3.21-2.74,4.49-3.33s2.56-.88,3.86-.88c1.21,0,2.29.33,3.24.97.94.65,1.64,1.62,2.1,2.92.13.34.35.53.66.6.31.06.62-.05.91-.34,1.72-1.59,3.2-2.68,4.46-3.27s2.53-.88,3.83-.88c1.76,0,3.19.66,4.3,1.98s1.66,3.26,1.66,5.81v20.42c0,.88.14,1.5.41,1.85.27.36.85.6,1.73.72l1.38.19c.46.08.69.33.69.75,0,.46-.25.69-.75.69h-10.74c-.59,0-.88-.23-.88-.69,0-.42.23-.67.69-.75l.88-.13c.96-.13,1.59-.38,1.88-.75.29-.38.44-1,.44-1.88v-19.72c0-2.05-.37-3.5-1.1-4.33-.73-.84-1.73-1.26-2.98-1.26s-2.4.39-3.42,1.16c-1.03.78-1.85,1.8-2.48,3.08-.63,1.28-.94,2.69-.94,4.24v16.83c0,.88.15,1.5.44,1.85.29.36.9.6,1.82.72l1.38.19c.46.08.69.33.69.75,0,.46-.25.69-.75.69h-10.68c-.59,0-.88-.23-.88-.69,0-.42.23-.67.69-.75l.88-.13c.88-.13,1.46-.38,1.73-.75.27-.38.41-1,.41-1.88v-19.72c0-2.05-.37-3.5-1.1-4.33-.73-.84-1.73-1.26-2.98-1.26s-2.4.39-3.42,1.16c-1.03.78-1.85,1.8-2.48,3.08-.63,1.28-.94,2.69-.94,4.24v16.83c0,.88.14,1.51.41,1.88.27.38.85.61,1.73.69l1.7.19c.46.08.69.31.69.69,0,.5-.31.75-.94.75h-10.63Z"/>
  <path class="st0" d="M103.91,55.27c-.63,0-.94-.23-.94-.69,0-.38.27-.63.82-.75l.75-.13c1.05-.17,1.72-.43,2.01-.79s.44-.97.44-1.85v-21.11c0-.75-.12-1.27-.35-1.54-.23-.27-.64-.45-1.23-.53l-1.32-.19c-.54-.04-.82-.27-.82-.69,0-.33.33-.57,1-.69,1.3-.21,2.35-.54,3.14-1s1.57-1.03,2.32-1.7c.38-.38.69-.57.94-.57.38,0,.57.25.57.75v27.26c0,.88.13,1.51.38,1.88.25.38.73.61,1.44.69l1.57.19c.46.08.69.31.69.69,0,.5-.31.75-.94.75h-10.49l.02.02ZM109.18,17.27c-.88,0-1.62-.31-2.23-.94-.61-.63-.91-1.42-.91-2.39s.3-1.75.91-2.36,1.35-.91,2.23-.91,1.61.3,2.2.91.88,1.39.88,2.36-.29,1.76-.88,2.39c-.59.63-1.32.94-2.2.94Z"/>
  <path class="st0" d="M124.26,55.84c-.96,0-1.99-.12-3.08-.35-1.09-.23-1.97-.51-2.64-.85-.38-.21-.57-.57-.57-1.07l-.19-7.04c0-.71.27-1.07.82-1.07.46,0,.77.34.94,1,.71,2.97,1.58,5,2.61,6.09s2.27,1.63,3.74,1.63c1.21,0,2.22-.47,3.02-1.41s1.19-2.25,1.19-3.93-.46-3.16-1.38-4.46-2.47-2.72-4.65-4.27c-2.18-1.47-3.77-2.94-4.77-4.43-1.01-1.49-1.51-3.11-1.51-4.87,0-2.39.84-4.31,2.51-5.78,1.67-1.47,3.9-2.2,6.66-2.2.84,0,1.65.09,2.45.28.79.19,1.51.49,2.14.91.38.25.57.59.57,1.01l.13,6.91c0,.63-.25.94-.75.94-.29,0-.5-.09-.63-.28s-.23-.43-.31-.72c-.84-2.72-1.68-4.62-2.51-5.68-.84-1.07-1.86-1.6-3.08-1.6-1.09,0-1.99.38-2.7,1.13s-1.07,1.7-1.07,2.83c0,1.47.44,2.74,1.32,3.83.88,1.09,2.47,2.43,4.77,4.02,2.09,1.51,3.68,3.13,4.74,4.87,1.07,1.74,1.6,3.63,1.6,5.68,0,2.68-.86,4.83-2.58,6.44-1.72,1.61-3.98,2.42-6.78,2.42v.02Z"/>
  <path class="st0" d="M143.61,55.84c-.96,0-1.99-.12-3.08-.35s-1.97-.51-2.64-.85c-.38-.21-.57-.57-.57-1.07l-.19-7.04c0-.71.27-1.07.82-1.07.46,0,.77.34.94,1,.71,2.97,1.58,5,2.61,6.09s2.27,1.63,3.74,1.63c1.21,0,2.22-.47,3.02-1.41s1.19-2.25,1.19-3.93-.46-3.16-1.38-4.46-2.47-2.72-4.65-4.27c-2.18-1.47-3.77-2.94-4.77-4.43-1.01-1.49-1.51-3.11-1.51-4.87,0-2.39.84-4.31,2.51-5.78,1.67-1.47,3.9-2.2,6.66-2.2.84,0,1.65.09,2.45.28.79.19,1.51.49,2.14.91.38.25.57.59.57,1.01l.13,6.91c0,.63-.25.94-.75.94-.29,0-.5-.09-.63-.28s-.23-.43-.31-.72c-.84-2.72-1.68-4.62-2.51-5.68-.84-1.07-1.86-1.6-3.08-1.6-1.09,0-1.99.38-2.7,1.13-.71.75-1.07,1.7-1.07,2.83,0,1.47.44,2.74,1.32,3.83.88,1.09,2.47,2.43,4.77,4.02,2.09,1.51,3.68,3.13,4.74,4.87,1.07,1.74,1.6,3.63,1.6,5.68,0,2.68-.86,4.83-2.58,6.44-1.72,1.61-3.98,2.42-6.78,2.42v.02Z"/>
  <path class="st0" d="M162.26,55.84c-1.76,0-3.2-.56-4.33-1.67-1.13-1.11-1.7-2.58-1.7-4.43s.56-3.51,1.7-5.12c1.13-1.61,2.68-3.07,4.65-4.37s4.21-2.34,6.72-3.14c.54-.17.82-.52.82-1.07v-5.72c0-2.01-.31-3.44-.94-4.3s-1.49-1.29-2.58-1.29-2,.47-2.86,1.41-1.48,2.52-1.85,4.74c-.21,1.34-.66,2.31-1.35,2.92s-1.39.91-2.1.91c-1.17,0-1.76-.59-1.76-1.76s.35-2.42,1.04-3.61,1.6-2.28,2.73-3.27c1.13-.98,2.37-1.77,3.71-2.36,1.34-.59,2.68-.88,4.02-.88,4.15,0,6.22,2.41,6.22,7.22v19.22c0,1.76.44,2.64,1.32,2.64.54,0,1.05-.37,1.51-1.1.46-.73.69-1.98.69-3.74,0-.67.27-1.01.82-1.01.5,0,.75.36.75,1.07,0,3.06-.53,5.27-1.6,6.63s-2.27,2.04-3.61,2.04c-1,0-1.8-.41-2.39-1.22-.59-.82-.98-1.79-1.19-2.92-.04-.42-.22-.64-.53-.66s-.62.18-.91.6c-1,1.38-2.03,2.43-3.08,3.14s-2.35,1.07-3.89,1.07l-.03.03ZM163.96,52.95c1.09,0,2.09-.39,3.02-1.16.92-.77,1.67-1.81,2.26-3.11s.88-2.76.88-4.4v-4.59c0-.79-.44-1.03-1.32-.69-2.56.92-4.53,2.19-5.94,3.8-1.4,1.61-2.1,3.55-2.1,5.81,0,2.89,1.07,4.33,3.2,4.33h0Z"/>
  <path class="st0" d="M192.73,55.84c-1.72,0-3.37-.54-4.96-1.63-.92-.63-1.76-.46-2.51.5-.42.46-.73.76-.94.91s-.42.22-.63.22c-.46,0-.63-.29-.5-.88.17-.96.29-2.2.38-3.71.08-1.51.13-3.52.13-6.03V15.07c0-.75-.12-1.27-.35-1.54-.23-.27-.64-.45-1.23-.53l-1.32-.19c-.46-.08-.69-.33-.69-.75s.23-.67.69-.75c1.17-.25,2.16-.54,2.95-.88.79-.33,1.47-.67,2.01-1.01.67-.42,1.17-.63,1.51-.63.46,0,.69.34.69,1v15.52c0,.34.14.56.41.66.27.11.58,0,.91-.35,1.8-1.84,3.77-2.76,5.9-2.76,1.93,0,3.63.64,5.12,1.92,1.49,1.28,2.66,3.05,3.52,5.31.86,2.26,1.29,4.92,1.29,7.98,0,3.48-.54,6.55-1.63,9.23-1.09,2.68-2.57,4.77-4.43,6.28-1.86,1.51-3.97,2.26-6.31,2.26h0ZM192.6,54.27c2.34,0,4.24-1.38,5.69-4.15,1.44-2.76,2.17-6.49,2.17-11.18,0-4.31-.63-7.6-1.88-9.86-1.26-2.26-3.04-3.39-5.34-3.39-1.42,0-2.66.59-3.71,1.76s-1.57,2.81-1.57,4.9v15.83c0,1.88.43,3.37,1.29,4.46s1.98,1.63,3.36,1.63h0Z"/>
  <path class="st0" d="M208.87,55.27c-.5,0-.75-.23-.75-.69,0-.42.23-.67.69-.75l.88-.13c.88-.13,1.53-.38,1.95-.75.42-.38.63-1,.63-1.88V15.07c0-.75-.12-1.28-.35-1.57-.23-.29-.64-.46-1.23-.5l-1.44-.19c-.46-.08-.69-.33-.69-.75s.23-.67.69-.75c1.17-.25,2.18-.54,3.02-.88.84-.33,1.53-.67,2.07-1.01.67-.42,1.17-.63,1.51-.63.46,0,.69.34.69,1v41.27c0,.88.14,1.5.41,1.85.27.36.85.6,1.73.72l1.44.19c.46.08.69.33.69.75,0,.46-.25.69-.75.69h-11.19Z"/>
  <path class="st0" d="M233.5,55.84c-2.01,0-3.81-.67-5.4-2.01s-2.86-3.24-3.8-5.69c-.94-2.45-1.41-5.29-1.41-8.51s.48-6.22,1.44-8.73c.96-2.51,2.28-4.48,3.96-5.91,1.67-1.42,3.54-2.14,5.59-2.14,2.47,0,4.47,1.02,6,3.05,1.53,2.03,2.29,5.33,2.29,9.89,0,1.38-.52,2.07-1.57,2.07h-11.94c-.84,0-1.26.48-1.26,1.44,0,4.44.65,7.77,1.95,9.99,1.3,2.22,2.95,3.33,4.96,3.33,1.59,0,2.89-.57,3.9-1.7,1-1.13,1.82-3.04,2.45-5.72.13-.46.4-.69.82-.69.5,0,.69.42.56,1.26-.67,3.73-1.74,6.33-3.2,7.82-1.47,1.49-3.25,2.23-5.34,2.23v.02ZM228.47,36.3h6.34c2.01,0,3.02-1.05,3.02-3.14,0-2.72-.34-4.86-1.01-6.41s-1.68-2.32-3.02-2.32c-1.63,0-3.01.94-4.11,2.83-1.11,1.88-1.83,4.57-2.17,8.04-.08.67.23,1,.94,1h0Z"/>
</svg>